<svg width="95" height="50" viewBox="0 0 95 50" fill="none" xmlns="http://www.w3.org/2000/svg">
<g clip-path="url(#clip0_220_32)">
<path d="M27.3143 45.178L24.5027 36.9253L0.475965 33.082L88.0998 3.00001L59.3696 46.6226L36.483 39.8048L27.3143 45.178Z" fill="white"/>
<path d="M27.3143 45.178L24.5027 36.9253M27.3143 45.178L32.8929 38.7354M27.3143 45.178L36.483 39.8048M24.5027 36.9253L0.475965 33.082M24.5027 36.9253L46.4726 25.2056M0.475965 33.082L88.0998 3.00001M0.475965 33.082L46.4726 25.2056M88.0998 3.00001L59.3696 46.6226M88.0998 3.00001L46.4726 25.2056M88.0998 3.00001L53.3119 25.5182M59.3696 46.6226L36.483 39.8048M59.3696 46.6226L53.3119 25.5182M32.8929 38.7354L36.483 39.8048M32.8929 38.7354L48.0382 28.9319M46.4726 25.2056L48.0382 28.9319M48.0382 28.9319L53.3119 25.5182" stroke="#FF6600" stroke-opacity="0.5" stroke-width="2"/>
</g>
<defs>
<clipPath id="clip0_220_32">
<rect width="95" height="50" fill="white"/>
</clipPath>
</defs>
</svg>
